<mxfile host="Electron" agent="Mozilla/5.0 (Macintosh; Intel Mac OS X 10_15_7) AppleWebKit/537.36 (KHTML, like Gecko) draw.io/26.0.9 Chrome/128.0.6613.186 Electron/32.2.5 Safari/537.36" version="26.0.9">
  <diagram name="Page-1" id="R8Vn_ntzDSgVxZDfQ-zX">
    <mxGraphModel dx="742" dy="2142" grid="1" gridSize="10" guides="1" tooltips="1" connect="1" arrows="1" fold="1" page="1" pageScale="1" pageWidth="827" pageHeight="1169" math="0" shadow="0">
      <root>
        <mxCell id="0" />
        <mxCell id="1" parent="0" />
        <mxCell id="h7CeoVj-Trudfwb80y2F-10" style="edgeStyle=orthogonalEdgeStyle;rounded=0;orthogonalLoop=1;jettySize=auto;html=1;exitX=1;exitY=0.5;exitDx=0;exitDy=0;entryX=0;entryY=0.5;entryDx=0;entryDy=0;elbow=vertical;curved=1;" edge="1" parent="1" source="h7CeoVj-Trudfwb80y2F-1" target="h7CeoVj-Trudfwb80y2F-2">
          <mxGeometry relative="1" as="geometry" />
        </mxCell>
        <mxCell id="h7CeoVj-Trudfwb80y2F-13" style="edgeStyle=orthogonalEdgeStyle;rounded=0;orthogonalLoop=1;jettySize=auto;html=1;exitX=1;exitY=0.5;exitDx=0;exitDy=0;entryX=0;entryY=0.5;entryDx=0;entryDy=0;curved=1;" edge="1" parent="1" source="h7CeoVj-Trudfwb80y2F-1" target="h7CeoVj-Trudfwb80y2F-3">
          <mxGeometry relative="1" as="geometry" />
        </mxCell>
        <mxCell id="h7CeoVj-Trudfwb80y2F-1" value="&lt;div&gt;Безопасность данных&lt;/div&gt;" style="rounded=0;whiteSpace=wrap;html=1;" vertex="1" parent="1">
          <mxGeometry x="160" y="400" width="120" height="60" as="geometry" />
        </mxCell>
        <mxCell id="h7CeoVj-Trudfwb80y2F-11" style="edgeStyle=orthogonalEdgeStyle;rounded=0;orthogonalLoop=1;jettySize=auto;html=1;exitX=1;exitY=0.5;exitDx=0;exitDy=0;entryX=0;entryY=0.5;entryDx=0;entryDy=0;curved=1;" edge="1" parent="1" source="h7CeoVj-Trudfwb80y2F-2" target="h7CeoVj-Trudfwb80y2F-7">
          <mxGeometry relative="1" as="geometry">
            <mxPoint x="650" y="60" as="targetPoint" />
          </mxGeometry>
        </mxCell>
        <mxCell id="h7CeoVj-Trudfwb80y2F-2" value="&lt;div&gt;Публичные данные&lt;/div&gt;" style="rounded=0;whiteSpace=wrap;html=1;" vertex="1" parent="1">
          <mxGeometry x="390" y="65" width="120" height="60" as="geometry" />
        </mxCell>
        <mxCell id="h7CeoVj-Trudfwb80y2F-3" value="&lt;div&gt;Внутренние данные&lt;/div&gt;" style="rounded=0;whiteSpace=wrap;html=1;" vertex="1" parent="1">
          <mxGeometry x="390" y="155" width="120" height="60" as="geometry" />
        </mxCell>
        <mxCell id="h7CeoVj-Trudfwb80y2F-4" value="&lt;div&gt;Конфиденциальные Данные&lt;/div&gt;" style="rounded=0;whiteSpace=wrap;html=1;" vertex="1" parent="1">
          <mxGeometry x="390" y="464" width="120" height="60" as="geometry" />
        </mxCell>
        <mxCell id="h7CeoVj-Trudfwb80y2F-5" value="Секретные данные" style="rounded=0;whiteSpace=wrap;html=1;" vertex="1" parent="1">
          <mxGeometry x="390" y="780" width="120" height="60" as="geometry" />
        </mxCell>
        <mxCell id="h7CeoVj-Trudfwb80y2F-28" style="edgeStyle=orthogonalEdgeStyle;rounded=0;orthogonalLoop=1;jettySize=auto;html=1;exitX=1;exitY=0.5;exitDx=0;exitDy=0;curved=1;" edge="1" parent="1" source="h7CeoVj-Trudfwb80y2F-7" target="h7CeoVj-Trudfwb80y2F-8">
          <mxGeometry relative="1" as="geometry" />
        </mxCell>
        <mxCell id="h7CeoVj-Trudfwb80y2F-7" value="Данные УК" style="rounded=0;whiteSpace=wrap;html=1;" vertex="1" parent="1">
          <mxGeometry x="650" y="30" width="120" height="60" as="geometry" />
        </mxCell>
        <mxCell id="h7CeoVj-Trudfwb80y2F-8" value="Потеря публичных данных не критична" style="rounded=0;whiteSpace=wrap;html=1;fillColor=#d5e8d4;strokeColor=#82b366;" vertex="1" parent="1">
          <mxGeometry x="880" y="20" width="120" height="40" as="geometry" />
        </mxCell>
        <mxCell id="h7CeoVj-Trudfwb80y2F-34" style="edgeStyle=orthogonalEdgeStyle;rounded=0;orthogonalLoop=1;jettySize=auto;html=1;exitX=1;exitY=0.5;exitDx=0;exitDy=0;entryX=0;entryY=0.5;entryDx=0;entryDy=0;curved=1;" edge="1" parent="1" source="h7CeoVj-Trudfwb80y2F-14" target="h7CeoVj-Trudfwb80y2F-31">
          <mxGeometry relative="1" as="geometry" />
        </mxCell>
        <mxCell id="h7CeoVj-Trudfwb80y2F-36" style="edgeStyle=orthogonalEdgeStyle;rounded=0;orthogonalLoop=1;jettySize=auto;html=1;exitX=1;exitY=0.5;exitDx=0;exitDy=0;entryX=0;entryY=0.5;entryDx=0;entryDy=0;curved=1;" edge="1" parent="1" source="h7CeoVj-Trudfwb80y2F-14" target="h7CeoVj-Trudfwb80y2F-29">
          <mxGeometry relative="1" as="geometry" />
        </mxCell>
        <mxCell id="h7CeoVj-Trudfwb80y2F-14" value="&lt;div&gt;данные о бронировании&lt;/div&gt;" style="rounded=0;whiteSpace=wrap;html=1;" vertex="1" parent="1">
          <mxGeometry x="650" y="110" width="120" height="60" as="geometry" />
        </mxCell>
        <mxCell id="h7CeoVj-Trudfwb80y2F-35" style="edgeStyle=orthogonalEdgeStyle;rounded=0;orthogonalLoop=1;jettySize=auto;html=1;exitX=1;exitY=0.5;exitDx=0;exitDy=0;curved=1;" edge="1" parent="1" source="h7CeoVj-Trudfwb80y2F-15" target="h7CeoVj-Trudfwb80y2F-32">
          <mxGeometry relative="1" as="geometry" />
        </mxCell>
        <mxCell id="h7CeoVj-Trudfwb80y2F-37" style="edgeStyle=orthogonalEdgeStyle;rounded=0;orthogonalLoop=1;jettySize=auto;html=1;exitX=1;exitY=0.5;exitDx=0;exitDy=0;entryX=0;entryY=0.5;entryDx=0;entryDy=0;curved=1;" edge="1" parent="1" source="h7CeoVj-Trudfwb80y2F-15" target="h7CeoVj-Trudfwb80y2F-33">
          <mxGeometry relative="1" as="geometry" />
        </mxCell>
        <mxCell id="h7CeoVj-Trudfwb80y2F-15" value="Технические данные(логи&lt;span style=&quot;background-color: transparent; color: light-dark(rgb(0, 0, 0), rgb(255, 255, 255));&quot;&gt;, статистика)&lt;/span&gt;" style="rounded=0;whiteSpace=wrap;html=1;" vertex="1" parent="1">
          <mxGeometry x="650" y="190" width="120" height="60" as="geometry" />
        </mxCell>
        <mxCell id="h7CeoVj-Trudfwb80y2F-57" style="edgeStyle=orthogonalEdgeStyle;shape=connector;curved=1;rounded=0;orthogonalLoop=1;jettySize=auto;html=1;entryX=0;entryY=0.75;entryDx=0;entryDy=0;strokeColor=default;align=center;verticalAlign=middle;fontFamily=Helvetica;fontSize=11;fontColor=default;labelBackgroundColor=default;endArrow=classic;" edge="1" parent="1" source="h7CeoVj-Trudfwb80y2F-16" target="h7CeoVj-Trudfwb80y2F-55">
          <mxGeometry relative="1" as="geometry" />
        </mxCell>
        <mxCell id="h7CeoVj-Trudfwb80y2F-58" style="edgeStyle=orthogonalEdgeStyle;shape=connector;curved=1;rounded=0;orthogonalLoop=1;jettySize=auto;html=1;entryX=0;entryY=0.5;entryDx=0;entryDy=0;strokeColor=default;align=center;verticalAlign=middle;fontFamily=Helvetica;fontSize=11;fontColor=default;labelBackgroundColor=default;endArrow=classic;" edge="1" parent="1" source="h7CeoVj-Trudfwb80y2F-16" target="h7CeoVj-Trudfwb80y2F-56">
          <mxGeometry relative="1" as="geometry" />
        </mxCell>
        <mxCell id="h7CeoVj-Trudfwb80y2F-61" style="edgeStyle=orthogonalEdgeStyle;shape=connector;curved=1;rounded=0;orthogonalLoop=1;jettySize=auto;html=1;entryX=0;entryY=0.5;entryDx=0;entryDy=0;strokeColor=default;align=center;verticalAlign=middle;fontFamily=Helvetica;fontSize=11;fontColor=default;labelBackgroundColor=default;endArrow=classic;" edge="1" parent="1" source="h7CeoVj-Trudfwb80y2F-16" target="h7CeoVj-Trudfwb80y2F-54">
          <mxGeometry relative="1" as="geometry" />
        </mxCell>
        <mxCell id="h7CeoVj-Trudfwb80y2F-16" value="Данные собственников\&amp;nbsp; клиентов" style="rounded=0;whiteSpace=wrap;html=1;" vertex="1" parent="1">
          <mxGeometry x="650" y="424" width="120" height="60" as="geometry" />
        </mxCell>
        <mxCell id="h7CeoVj-Trudfwb80y2F-68" style="edgeStyle=orthogonalEdgeStyle;shape=connector;curved=1;rounded=0;orthogonalLoop=1;jettySize=auto;html=1;strokeColor=default;align=center;verticalAlign=middle;fontFamily=Helvetica;fontSize=11;fontColor=default;labelBackgroundColor=default;endArrow=classic;" edge="1" parent="1" source="h7CeoVj-Trudfwb80y2F-17" target="h7CeoVj-Trudfwb80y2F-65">
          <mxGeometry relative="1" as="geometry" />
        </mxCell>
        <mxCell id="h7CeoVj-Trudfwb80y2F-17" value="Данные о сделках" style="rounded=0;whiteSpace=wrap;html=1;" vertex="1" parent="1">
          <mxGeometry x="650" y="514" width="120" height="60" as="geometry" />
        </mxCell>
        <mxCell id="h7CeoVj-Trudfwb80y2F-72" style="edgeStyle=orthogonalEdgeStyle;shape=connector;curved=1;rounded=0;orthogonalLoop=1;jettySize=auto;html=1;entryX=0;entryY=0.5;entryDx=0;entryDy=0;strokeColor=default;align=center;verticalAlign=middle;fontFamily=Helvetica;fontSize=11;fontColor=default;labelBackgroundColor=default;endArrow=classic;" edge="1" parent="1" source="h7CeoVj-Trudfwb80y2F-18" target="h7CeoVj-Trudfwb80y2F-70">
          <mxGeometry relative="1" as="geometry" />
        </mxCell>
        <mxCell id="h7CeoVj-Trudfwb80y2F-18" value="Закрытые системные ключи" style="rounded=0;whiteSpace=wrap;html=1;" vertex="1" parent="1">
          <mxGeometry x="650" y="740" width="120" height="60" as="geometry" />
        </mxCell>
        <mxCell id="h7CeoVj-Trudfwb80y2F-71" style="edgeStyle=orthogonalEdgeStyle;shape=connector;curved=1;rounded=0;orthogonalLoop=1;jettySize=auto;html=1;entryX=0;entryY=0.5;entryDx=0;entryDy=0;strokeColor=default;align=center;verticalAlign=middle;fontFamily=Helvetica;fontSize=11;fontColor=default;labelBackgroundColor=default;endArrow=classic;" edge="1" parent="1" source="h7CeoVj-Trudfwb80y2F-19" target="h7CeoVj-Trudfwb80y2F-70">
          <mxGeometry relative="1" as="geometry" />
        </mxCell>
        <mxCell id="h7CeoVj-Trudfwb80y2F-19" value="Фин данные" style="rounded=0;whiteSpace=wrap;html=1;" vertex="1" parent="1">
          <mxGeometry x="650" y="820" width="120" height="60" as="geometry" />
        </mxCell>
        <mxCell id="h7CeoVj-Trudfwb80y2F-20" style="edgeStyle=orthogonalEdgeStyle;rounded=0;orthogonalLoop=1;jettySize=auto;html=1;exitX=1;exitY=0.5;exitDx=0;exitDy=0;entryX=0;entryY=0.5;entryDx=0;entryDy=0;curved=1;" edge="1" parent="1" source="h7CeoVj-Trudfwb80y2F-3" target="h7CeoVj-Trudfwb80y2F-14">
          <mxGeometry relative="1" as="geometry">
            <mxPoint x="520" y="150" as="sourcePoint" />
            <mxPoint x="660" y="70" as="targetPoint" />
          </mxGeometry>
        </mxCell>
        <mxCell id="h7CeoVj-Trudfwb80y2F-21" style="edgeStyle=orthogonalEdgeStyle;rounded=0;orthogonalLoop=1;jettySize=auto;html=1;exitX=1;exitY=0.5;exitDx=0;exitDy=0;entryX=0;entryY=0.5;entryDx=0;entryDy=0;curved=1;" edge="1" parent="1" source="h7CeoVj-Trudfwb80y2F-3" target="h7CeoVj-Trudfwb80y2F-15">
          <mxGeometry relative="1" as="geometry">
            <mxPoint x="530" y="160" as="sourcePoint" />
            <mxPoint x="670" y="80" as="targetPoint" />
          </mxGeometry>
        </mxCell>
        <mxCell id="h7CeoVj-Trudfwb80y2F-22" style="edgeStyle=orthogonalEdgeStyle;rounded=0;orthogonalLoop=1;jettySize=auto;html=1;exitX=1;exitY=0.5;exitDx=0;exitDy=0;entryX=0;entryY=0.5;entryDx=0;entryDy=0;curved=1;" edge="1" parent="1" source="h7CeoVj-Trudfwb80y2F-4" target="h7CeoVj-Trudfwb80y2F-16">
          <mxGeometry relative="1" as="geometry">
            <mxPoint x="540" y="314" as="sourcePoint" />
            <mxPoint x="680" y="234" as="targetPoint" />
          </mxGeometry>
        </mxCell>
        <mxCell id="h7CeoVj-Trudfwb80y2F-23" style="edgeStyle=orthogonalEdgeStyle;rounded=0;orthogonalLoop=1;jettySize=auto;html=1;exitX=1;exitY=0.5;exitDx=0;exitDy=0;entryX=0;entryY=0.5;entryDx=0;entryDy=0;curved=1;" edge="1" parent="1" source="h7CeoVj-Trudfwb80y2F-4" target="h7CeoVj-Trudfwb80y2F-17">
          <mxGeometry relative="1" as="geometry">
            <mxPoint x="550" y="324" as="sourcePoint" />
            <mxPoint x="690" y="244" as="targetPoint" />
          </mxGeometry>
        </mxCell>
        <mxCell id="h7CeoVj-Trudfwb80y2F-24" style="edgeStyle=orthogonalEdgeStyle;rounded=0;orthogonalLoop=1;jettySize=auto;html=1;exitX=1;exitY=0.5;exitDx=0;exitDy=0;entryX=0;entryY=0.5;entryDx=0;entryDy=0;curved=1;" edge="1" parent="1" source="h7CeoVj-Trudfwb80y2F-5" target="h7CeoVj-Trudfwb80y2F-18">
          <mxGeometry relative="1" as="geometry">
            <mxPoint x="560" y="470" as="sourcePoint" />
            <mxPoint x="700" y="390" as="targetPoint" />
          </mxGeometry>
        </mxCell>
        <mxCell id="h7CeoVj-Trudfwb80y2F-25" style="edgeStyle=orthogonalEdgeStyle;rounded=0;orthogonalLoop=1;jettySize=auto;html=1;exitX=1;exitY=0.5;exitDx=0;exitDy=0;entryX=0;entryY=0.5;entryDx=0;entryDy=0;curved=1;" edge="1" parent="1" source="h7CeoVj-Trudfwb80y2F-5" target="h7CeoVj-Trudfwb80y2F-19">
          <mxGeometry relative="1" as="geometry">
            <mxPoint x="570" y="480" as="sourcePoint" />
            <mxPoint x="710" y="400" as="targetPoint" />
          </mxGeometry>
        </mxCell>
        <mxCell id="h7CeoVj-Trudfwb80y2F-26" style="edgeStyle=orthogonalEdgeStyle;rounded=0;orthogonalLoop=1;jettySize=auto;html=1;exitX=1;exitY=0.5;exitDx=0;exitDy=0;entryX=0;entryY=0.5;entryDx=0;entryDy=0;curved=1;" edge="1" parent="1" source="h7CeoVj-Trudfwb80y2F-1" target="h7CeoVj-Trudfwb80y2F-4">
          <mxGeometry relative="1" as="geometry">
            <mxPoint x="290" y="300" as="sourcePoint" />
            <mxPoint x="400" y="240" as="targetPoint" />
          </mxGeometry>
        </mxCell>
        <mxCell id="h7CeoVj-Trudfwb80y2F-27" style="edgeStyle=orthogonalEdgeStyle;rounded=0;orthogonalLoop=1;jettySize=auto;html=1;exitX=1;exitY=0.5;exitDx=0;exitDy=0;entryX=0;entryY=0.5;entryDx=0;entryDy=0;curved=1;" edge="1" parent="1" source="h7CeoVj-Trudfwb80y2F-1" target="h7CeoVj-Trudfwb80y2F-5">
          <mxGeometry relative="1" as="geometry">
            <mxPoint x="300" y="310" as="sourcePoint" />
            <mxPoint x="410" y="250" as="targetPoint" />
          </mxGeometry>
        </mxCell>
        <mxCell id="h7CeoVj-Trudfwb80y2F-47" style="edgeStyle=orthogonalEdgeStyle;shape=connector;curved=1;rounded=0;orthogonalLoop=1;jettySize=auto;html=1;entryX=0;entryY=0.5;entryDx=0;entryDy=0;strokeColor=default;align=center;verticalAlign=middle;fontFamily=Helvetica;fontSize=11;fontColor=default;labelBackgroundColor=default;endArrow=classic;" edge="1" parent="1" source="h7CeoVj-Trudfwb80y2F-29" target="h7CeoVj-Trudfwb80y2F-46">
          <mxGeometry relative="1" as="geometry" />
        </mxCell>
        <mxCell id="h7CeoVj-Trudfwb80y2F-29" value="Потеря" style="rounded=0;whiteSpace=wrap;html=1;fillColor=#fff2cc;strokeColor=#d6b656;" vertex="1" parent="1">
          <mxGeometry x="880" y="130" width="120" height="30" as="geometry" />
        </mxCell>
        <mxCell id="h7CeoVj-Trudfwb80y2F-49" style="edgeStyle=orthogonalEdgeStyle;shape=connector;curved=1;rounded=0;orthogonalLoop=1;jettySize=auto;html=1;exitX=1;exitY=0.5;exitDx=0;exitDy=0;entryX=0;entryY=0.5;entryDx=0;entryDy=0;strokeColor=default;align=center;verticalAlign=middle;fontFamily=Helvetica;fontSize=11;fontColor=default;labelBackgroundColor=default;endArrow=classic;" edge="1" parent="1" source="h7CeoVj-Trudfwb80y2F-31" target="h7CeoVj-Trudfwb80y2F-48">
          <mxGeometry relative="1" as="geometry" />
        </mxCell>
        <mxCell id="h7CeoVj-Trudfwb80y2F-31" value="Утечка" style="rounded=0;whiteSpace=wrap;html=1;fillColor=#fff2cc;strokeColor=#d6b656;" vertex="1" parent="1">
          <mxGeometry x="880" y="80" width="120" height="30" as="geometry" />
        </mxCell>
        <mxCell id="h7CeoVj-Trudfwb80y2F-43" style="edgeStyle=orthogonalEdgeStyle;shape=connector;curved=1;rounded=0;orthogonalLoop=1;jettySize=auto;html=1;strokeColor=default;align=center;verticalAlign=middle;fontFamily=Helvetica;fontSize=11;fontColor=default;labelBackgroundColor=default;endArrow=classic;" edge="1" parent="1" source="h7CeoVj-Trudfwb80y2F-32" target="h7CeoVj-Trudfwb80y2F-42">
          <mxGeometry relative="1" as="geometry" />
        </mxCell>
        <mxCell id="h7CeoVj-Trudfwb80y2F-32" value="Подмена" style="rounded=0;whiteSpace=wrap;html=1;fillColor=#f8cecc;strokeColor=#b85450;" vertex="1" parent="1">
          <mxGeometry x="880" y="230" width="120" height="30" as="geometry" />
        </mxCell>
        <mxCell id="h7CeoVj-Trudfwb80y2F-45" style="edgeStyle=orthogonalEdgeStyle;shape=connector;curved=1;rounded=0;orthogonalLoop=1;jettySize=auto;html=1;strokeColor=default;align=center;verticalAlign=middle;fontFamily=Helvetica;fontSize=11;fontColor=default;labelBackgroundColor=default;endArrow=classic;" edge="1" parent="1" source="h7CeoVj-Trudfwb80y2F-33" target="h7CeoVj-Trudfwb80y2F-41">
          <mxGeometry relative="1" as="geometry" />
        </mxCell>
        <mxCell id="h7CeoVj-Trudfwb80y2F-33" value="Утечка" style="rounded=0;whiteSpace=wrap;html=1;fillColor=#fff2cc;strokeColor=#d6b656;" vertex="1" parent="1">
          <mxGeometry x="880" y="180" width="120" height="30" as="geometry" />
        </mxCell>
        <mxCell id="h7CeoVj-Trudfwb80y2F-41" value="&lt;meta charset=&quot;utf-8&quot;&gt;&lt;span style=&quot;color: rgb(0, 0, 0); font-family: Helvetica; font-size: 12px; font-style: normal; font-variant-ligatures: normal; font-variant-caps: normal; font-weight: 400; letter-spacing: normal; orphans: 2; text-align: center; text-indent: 0px; text-transform: none; widows: 2; word-spacing: 0px; -webkit-text-stroke-width: 0px; white-space: normal; background-color: rgb(251, 251, 251); text-decoration-thickness: initial; text-decoration-style: initial; text-decoration-color: initial; display: inline !important; float: none;&quot;&gt;Может дать злоумышленникам больше информации для успешных атак&lt;/span&gt;" style="rounded=0;whiteSpace=wrap;html=1;fontFamily=Helvetica;fontSize=11;fontColor=default;labelBackgroundColor=default;" vertex="1" parent="1">
          <mxGeometry x="1120" y="145" width="150" height="80" as="geometry" />
        </mxCell>
        <mxCell id="h7CeoVj-Trudfwb80y2F-42" value="&lt;span style=&quot;color: rgb(0, 0, 0); font-family: Helvetica; font-size: 12px; font-style: normal; font-variant-ligatures: normal; font-variant-caps: normal; font-weight: 400; letter-spacing: normal; orphans: 2; text-align: center; text-indent: 0px; text-transform: none; widows: 2; word-spacing: 0px; -webkit-text-stroke-width: 0px; white-space: normal; background-color: rgb(251, 251, 251); text-decoration-thickness: initial; text-decoration-style: initial; text-decoration-color: initial; float: none; display: inline !important;&quot;&gt;Изменение данных может скрыть вредоносную деятельность&lt;/span&gt;" style="rounded=0;whiteSpace=wrap;html=1;fontFamily=Helvetica;fontSize=11;fontColor=default;labelBackgroundColor=default;" vertex="1" parent="1">
          <mxGeometry x="1120" y="250" width="150" height="80" as="geometry" />
        </mxCell>
        <mxCell id="h7CeoVj-Trudfwb80y2F-46" value="&lt;span style=&quot;font-size: 12px; background-color: rgb(251, 251, 251);&quot;&gt;Может временно парализовать систему(до резевного), что приведет к потенциальным потерям для компании&lt;/span&gt;" style="rounded=0;whiteSpace=wrap;html=1;fontFamily=Helvetica;fontSize=11;fontColor=default;labelBackgroundColor=default;" vertex="1" parent="1">
          <mxGeometry x="1120" y="55" width="150" height="80" as="geometry" />
        </mxCell>
        <mxCell id="h7CeoVj-Trudfwb80y2F-48" value="&lt;span style=&quot;font-size: 12px; background-color: rgb(251, 251, 251);&quot;&gt;Приведет к снижению доверия клиентов, а так же дать конкурентам ценную информацию&lt;/span&gt;" style="rounded=0;whiteSpace=wrap;html=1;fontFamily=Helvetica;fontSize=11;fontColor=default;labelBackgroundColor=default;" vertex="1" parent="1">
          <mxGeometry x="1120" y="-40" width="150" height="80" as="geometry" />
        </mxCell>
        <mxCell id="h7CeoVj-Trudfwb80y2F-50" value="критично" style="rounded=0;whiteSpace=wrap;html=1;fillColor=#f8cecc;strokeColor=#b85450;" vertex="1" parent="1">
          <mxGeometry x="890" y="-110" width="120" height="30" as="geometry" />
        </mxCell>
        <mxCell id="h7CeoVj-Trudfwb80y2F-51" value="значительно" style="rounded=0;whiteSpace=wrap;html=1;fillColor=#fff2cc;strokeColor=#d6b656;" vertex="1" parent="1">
          <mxGeometry x="760" y="-110" width="120" height="30" as="geometry" />
        </mxCell>
        <mxCell id="h7CeoVj-Trudfwb80y2F-52" value="не критично" style="rounded=0;whiteSpace=wrap;html=1;fillColor=#d5e8d4;strokeColor=#82b366;" vertex="1" parent="1">
          <mxGeometry x="630" y="-110" width="120" height="30" as="geometry" />
        </mxCell>
        <mxCell id="h7CeoVj-Trudfwb80y2F-53" value="&lt;font style=&quot;font-size: 15px;&quot;&gt;риски&lt;/font&gt;" style="text;html=1;align=center;verticalAlign=middle;resizable=0;points=[];autosize=1;strokeColor=none;fillColor=none;fontFamily=Helvetica;fontSize=11;fontColor=default;labelBackgroundColor=default;" vertex="1" parent="1">
          <mxGeometry x="785" y="-150" width="70" height="30" as="geometry" />
        </mxCell>
        <mxCell id="h7CeoVj-Trudfwb80y2F-64" style="edgeStyle=orthogonalEdgeStyle;shape=connector;curved=1;rounded=0;orthogonalLoop=1;jettySize=auto;html=1;entryX=0;entryY=0.5;entryDx=0;entryDy=0;strokeColor=default;align=center;verticalAlign=middle;fontFamily=Helvetica;fontSize=11;fontColor=default;labelBackgroundColor=default;endArrow=classic;" edge="1" parent="1" source="h7CeoVj-Trudfwb80y2F-54" target="h7CeoVj-Trudfwb80y2F-59">
          <mxGeometry relative="1" as="geometry" />
        </mxCell>
        <mxCell id="h7CeoVj-Trudfwb80y2F-54" value="Подмена" style="rounded=0;whiteSpace=wrap;html=1;fillColor=#f8cecc;strokeColor=#b85450;" vertex="1" parent="1">
          <mxGeometry x="880" y="460" width="120" height="30" as="geometry" />
        </mxCell>
        <mxCell id="h7CeoVj-Trudfwb80y2F-60" style="edgeStyle=orthogonalEdgeStyle;shape=connector;curved=1;rounded=0;orthogonalLoop=1;jettySize=auto;html=1;entryX=0;entryY=0.5;entryDx=0;entryDy=0;strokeColor=default;align=center;verticalAlign=middle;fontFamily=Helvetica;fontSize=11;fontColor=default;labelBackgroundColor=default;endArrow=classic;" edge="1" parent="1" source="h7CeoVj-Trudfwb80y2F-55" target="h7CeoVj-Trudfwb80y2F-59">
          <mxGeometry relative="1" as="geometry" />
        </mxCell>
        <mxCell id="h7CeoVj-Trudfwb80y2F-55" value="Утечка" style="rounded=0;whiteSpace=wrap;html=1;fillColor=#f8cecc;strokeColor=#b85450;" vertex="1" parent="1">
          <mxGeometry x="880" y="380" width="120" height="30" as="geometry" />
        </mxCell>
        <mxCell id="h7CeoVj-Trudfwb80y2F-56" value="Потеря" style="rounded=0;whiteSpace=wrap;html=1;fillColor=#d5e8d4;strokeColor=#82b366;" vertex="1" parent="1">
          <mxGeometry x="880" y="420" width="120" height="30" as="geometry" />
        </mxCell>
        <mxCell id="h7CeoVj-Trudfwb80y2F-59" value="&lt;span style=&quot;font-size: 12px; background-color: rgb(251, 251, 251);&quot;&gt;Помимо репутационных потерь, будут юридические последствия&lt;/span&gt;" style="rounded=0;whiteSpace=wrap;html=1;fontFamily=Helvetica;fontSize=11;fontColor=default;labelBackgroundColor=default;" vertex="1" parent="1">
          <mxGeometry x="1120" y="340" width="150" height="80" as="geometry" />
        </mxCell>
        <mxCell id="h7CeoVj-Trudfwb80y2F-67" style="edgeStyle=orthogonalEdgeStyle;shape=connector;curved=1;rounded=0;orthogonalLoop=1;jettySize=auto;html=1;strokeColor=default;align=center;verticalAlign=middle;fontFamily=Helvetica;fontSize=11;fontColor=default;labelBackgroundColor=default;endArrow=classic;" edge="1" parent="1" source="h7CeoVj-Trudfwb80y2F-65" target="h7CeoVj-Trudfwb80y2F-66">
          <mxGeometry relative="1" as="geometry" />
        </mxCell>
        <mxCell id="h7CeoVj-Trudfwb80y2F-65" value="Утечка" style="rounded=0;whiteSpace=wrap;html=1;fillColor=#f8cecc;strokeColor=#b85450;" vertex="1" parent="1">
          <mxGeometry x="880" y="529" width="120" height="30" as="geometry" />
        </mxCell>
        <mxCell id="h7CeoVj-Trudfwb80y2F-66" value="&lt;span style=&quot;font-size: 12px; background-color: rgb(251, 251, 251);&quot;&gt;Может привести к финансовым потерям компании&lt;/span&gt;" style="rounded=0;whiteSpace=wrap;html=1;fontFamily=Helvetica;fontSize=11;fontColor=default;labelBackgroundColor=default;" vertex="1" parent="1">
          <mxGeometry x="1120" y="504" width="150" height="80" as="geometry" />
        </mxCell>
        <mxCell id="h7CeoVj-Trudfwb80y2F-74" style="edgeStyle=orthogonalEdgeStyle;shape=connector;curved=1;rounded=0;orthogonalLoop=1;jettySize=auto;html=1;entryX=0;entryY=0.5;entryDx=0;entryDy=0;strokeColor=default;align=center;verticalAlign=middle;fontFamily=Helvetica;fontSize=11;fontColor=default;labelBackgroundColor=default;endArrow=classic;" edge="1" parent="1" source="h7CeoVj-Trudfwb80y2F-70" target="h7CeoVj-Trudfwb80y2F-73">
          <mxGeometry relative="1" as="geometry" />
        </mxCell>
        <mxCell id="h7CeoVj-Trudfwb80y2F-70" value="Утечка" style="rounded=0;whiteSpace=wrap;html=1;fillColor=#f8cecc;strokeColor=#b85450;" vertex="1" parent="1">
          <mxGeometry x="880" y="800" width="120" height="30" as="geometry" />
        </mxCell>
        <mxCell id="h7CeoVj-Trudfwb80y2F-73" value="&lt;span style=&quot;font-size: 12px; background-color: rgb(251, 251, 251);&quot;&gt;&amp;nbsp;Может привести к значительным финансовым потерям компании. И помимо этого может привести к юр. последствиям&lt;/span&gt;" style="rounded=0;whiteSpace=wrap;html=1;fontFamily=Helvetica;fontSize=11;fontColor=default;labelBackgroundColor=default;" vertex="1" parent="1">
          <mxGeometry x="1120" y="770" width="150" height="90" as="geometry" />
        </mxCell>
      </root>
    </mxGraphModel>
  </diagram>
</mxfile>
